<svg id="Capa_1" enable-background="new 0 0 512 512" height="512" viewBox="0 0 512 512" width="512" xmlns="http://www.w3.org/2000/svg"><g><path d="m445.935 503.742h-363.354v-402.992l71.169-84.234h292.185c4.561 0 8.258 3.697 8.258 8.258v470.71c.001 4.561-3.697 8.258-8.258 8.258z" fill="#ff9a9f"/><path d="m90.839 495.484v16.516h355.097c4.561 0 8.258-3.698 8.258-8.258v-8.258z" fill="#ff8086"/><path d="m114 16.516h-39.677c-4.561 0-8.258 3.697-8.258 8.258v478.559l24.774-7.849v-396.387z" fill="#857e87"/><path d="m143.69 105.703-19.819-14.865-19.819 14.865c-5.444 4.083-13.213.199-13.213-6.606v-90.839c0-4.561 3.697-8.258 8.258-8.258h49.548c4.561 0 8.258 3.697 8.258 8.258v90.839c0 6.805-7.769 10.689-13.213 6.606z" fill="#e5646e"/><path d="m346.839 412.903h-148.645c-4.565 0-8.258-3.698-8.258-8.258s3.694-8.258 8.258-8.258h148.645c4.565 0 8.258 3.698 8.258 8.258s-3.694 8.258-8.258 8.258z" fill="#e5646e"/><path d="m305.548 445.935h-66.065c-4.565 0-8.258-3.698-8.258-8.258s3.694-8.258 8.258-8.258h66.065c4.565 0 8.258 3.698 8.258 8.258s-3.693 8.258-8.258 8.258z" fill="#ff8086"/><path d="m82.581 495.484c-4.561 0-8.258-3.698-8.258-8.258v-470.71h-8.258c-4.561 0-8.258 3.697-8.258 8.258v478.968c0 4.56 3.697 8.258 8.258 8.258h24.774v-16.516z" fill="#6f6571"/><g><path d="m404.645 140.387h-24.774c-13.682 0-24.774 11.092-24.774 24.774v66.064c0 13.682-11.092 24.774-24.774 24.774h-41.29v-90.839c0-4.561 3.697-8.258 8.258-8.258h8.258c4.561 0 8.258-3.698 8.258-8.258 0-4.561-3.697-8.258-8.258-8.258h-33.032l-14.017 10.614c4.561 0 8 9.6 8 14.161v204.339l30.79-6.145c-4.561 0-8.258-3.698-8.258-8.258v-82.581h57.807c22.804 0 41.29-18.486 41.29-41.29v-66.064c0-4.561 3.697-8.258 8.258-8.258h8.258c4.561 0 8.258-3.698 8.258-8.258 0-4.562-3.697-8.259-8.258-8.259z" fill="#fff"/></g><path d="m272.516 346.839v-206.452h-33.032c-4.561 0-8.258 3.697-8.258 8.258 0 4.56 3.697 8.258 8.258 8.258h8.258c4.561 0 8.258 3.697 8.258 8.258v90.839h-41.29c-13.682 0-24.774-11.092-24.774-24.774v-66.065c0-13.682-11.092-24.774-24.774-24.774h-24.774c-4.561 0-8.258 3.697-8.258 8.258 0 4.56 3.697 8.258 8.258 8.258h8.258c4.561 0 8.258 3.697 8.258 8.258v66.065c0 22.804 18.486 41.29 41.29 41.29h57.806v82.581c0 4.561-3.697 8.258-8.258 8.258h-8.258c-4.561 0-8.258 3.697-8.258 8.258 0 4.56 3.697 8.258 8.258 8.258h66.065c4.561 0 8.258-3.698 8.258-8.258 0-4.561-3.697-8.258-8.258-8.258h-8.258-8.258c-9.122 0-16.517-7.395-16.517-16.516z" fill="#faf5dc"/></g></svg>